<svg width="27" height="25" viewBox="0 0 27 25" fill="none" xmlns="http://www.w3.org/2000/svg">
<path d="M6.3 8.03503C6.83185 8.03503 7.3585 7.93111 7.84987 7.72921C8.34124 7.52731 8.7877 7.23139 9.16378 6.85833C9.53986 6.48526 9.83818 6.04238 10.0417 5.55495C10.2452 5.06752 10.35 4.5451 10.35 4.01751C10.35 3.48993 10.2452 2.96751 10.0417 2.48008C9.83818 1.99265 9.53986 1.54976 9.16378 1.1767C8.7877 0.803642 8.34124 0.507714 7.84987 0.305815C7.3585 0.103916 6.83185 -7.86167e-09 6.3 0C5.22587 1.58774e-08 4.19574 0.423273 3.43622 1.1767C2.6767 1.93013 2.25 2.952 2.25 4.01751C2.25 5.08302 2.6767 6.1049 3.43622 6.85833C4.19574 7.61176 5.22587 8.03503 6.3 8.03503ZM6.3 6.24947C5.70326 6.24947 5.13097 6.01431 4.70901 5.59574C4.28705 5.17717 4.05 4.60946 4.05 4.01751C4.05 3.42556 4.28705 2.85786 4.70901 2.43929C5.13097 2.02071 5.70326 1.78556 6.3 1.78556C6.89674 1.78556 7.46903 2.02071 7.89099 2.43929C8.31295 2.85786 8.55 3.42556 8.55 4.01751C8.55 4.60946 8.31295 5.17717 7.89099 5.59574C7.46903 6.01431 6.89674 6.24947 6.3 6.24947ZM0 10.7134C0 10.2398 0.189642 9.78565 0.527208 9.45079C0.864773 9.11593 1.32261 8.92781 1.8 8.92781H10.8C11.2774 8.92781 11.7352 9.11593 12.0728 9.45079C12.4104 9.78565 12.6 10.2398 12.6 10.7134V18.7484C12.6 19.5691 12.437 20.3817 12.1204 21.14C11.8038 21.8982 11.3398 22.5871 10.7548 23.1674C10.1698 23.7478 9.47526 24.2081 8.71091 24.5222C7.94655 24.8362 7.12733 24.9979 6.3 24.9979C5.47267 24.9979 4.65345 24.8362 3.88909 24.5222C3.12474 24.2081 2.43024 23.7478 1.84523 23.1674C1.26022 22.5871 0.796163 21.8982 0.479559 21.14C0.162954 20.3817 -1.74346e-08 19.5691 0 18.7484V10.7134ZM1.8 10.7134V18.7484C1.8 19.9323 2.27411 21.0677 3.11802 21.9049C3.96193 22.742 5.10653 23.2123 6.3 23.2123C7.49347 23.2123 8.63807 22.742 9.48198 21.9049C10.3259 21.0677 10.8 19.9323 10.8 18.7484V10.7134H1.8ZM11.9268 5.61202C11.7681 6.162 11.5279 6.68553 11.214 7.16546C11.9574 7.25117 12.6306 7.55828 13.1652 8.02253C13.8153 8.07583 14.4687 7.97258 15.0699 7.72156C15.6711 7.47055 16.2023 7.0792 16.6183 6.5808C17.0343 6.0824 17.3228 5.49171 17.4592 4.85896C17.5956 4.22621 17.576 3.57014 17.4019 2.94654C17.2278 2.32295 16.9045 1.75029 16.4594 1.27728C16.0143 0.804271 15.4606 0.444904 14.8455 0.22975C14.2303 0.0145971 13.5718 -0.049976 12.9261 0.0415243C12.2803 0.133025 11.6664 0.377891 11.1366 0.755293C11.484 1.25882 11.7522 1.82127 11.9268 2.42301C12.2434 2.11575 12.6444 1.90802 13.0795 1.82584C13.5146 1.74367 13.9644 1.7907 14.3727 1.96105C14.7809 2.13141 15.1294 2.4175 15.3745 2.78348C15.6196 3.14946 15.7503 3.57905 15.7503 4.01841C15.7503 4.45777 15.6196 4.88735 15.3745 5.25333C15.1294 5.61931 14.7809 5.90541 14.3727 6.07576C13.9644 6.24611 13.5146 6.29315 13.0795 6.21097C12.6444 6.1288 12.2434 5.91928 11.9268 5.61202ZM11.6982 24.739C12.6388 25.0174 13.6319 25.074 14.5984 24.9043C15.5649 24.7345 16.4781 24.3431 17.2651 23.7612C18.0521 23.1793 18.6911 22.423 19.1312 21.5527C19.5713 20.6824 19.8003 19.7221 19.8 18.7484V10.7134C19.8 10.2398 19.6104 9.78565 19.2728 9.45079C18.9352 9.11593 18.4774 8.92781 18 8.92781H13.9194C14.2254 9.45276 14.4018 10.0634 14.4018 10.7134H18.0018V18.7484C18.0019 19.3723 17.8702 19.9894 17.6151 20.5597C17.36 21.13 16.9873 21.641 16.5208 22.0595C16.0544 22.4781 15.5047 22.7951 14.9072 22.99C14.3097 23.1848 13.6776 23.2533 13.0518 23.1909C12.6684 23.7623 12.2148 24.2819 11.7018 24.739H11.6982ZM19.1268 5.61202C18.968 6.16198 18.7278 6.6855 18.414 7.16546C19.1574 7.25117 19.8306 7.55828 20.3652 8.02253C21.0153 8.07583 21.6687 7.97258 22.2699 7.72156C22.8711 7.47055 23.4023 7.0792 23.8183 6.5808C24.2343 6.0824 24.5228 5.49171 24.6592 4.85896C24.7956 4.22621 24.776 3.57014 24.6019 2.94654C24.4278 2.32295 24.1045 1.75029 23.6594 1.27728C23.2143 0.804271 22.6606 0.444904 22.0455 0.22975C21.4303 0.0145971 20.7718 -0.049976 20.1261 0.0415243C19.4804 0.133025 18.8664 0.377891 18.3366 0.755293C18.684 1.25882 18.9522 1.82127 19.1268 2.42301C19.4434 2.11575 19.8444 1.90802 20.2795 1.82584C20.7146 1.74367 21.1644 1.7907 21.5727 1.96105C21.9809 2.13141 22.3294 2.4175 22.5745 2.78348C22.8196 3.14946 22.9503 3.57905 22.9503 4.01841C22.9503 4.45777 22.8196 4.88735 22.5745 5.25333C22.3294 5.61931 21.9809 5.90541 21.5727 6.07576C21.1644 6.24611 20.7146 6.29315 20.2795 6.21097C19.8444 6.1288 19.4434 5.91928 19.1268 5.61202ZM18.8982 24.739C19.8388 25.0174 20.8319 25.074 21.7984 24.9043C22.7649 24.7345 23.6781 24.3431 24.4651 23.7612C25.2521 23.1793 25.8911 22.423 26.3312 21.5527C26.7713 20.6824 27.0003 19.7221 27 18.7484V10.7134C27 10.2398 26.8104 9.78565 26.4728 9.45079C26.1352 9.11593 25.6774 8.92781 25.2 8.92781H21.1194C21.4254 9.45276 21.6018 10.0634 21.6018 10.7134H25.2018V18.7484C25.2019 19.3723 25.0702 19.9894 24.8151 20.5597C24.56 21.13 24.1873 21.641 23.7208 22.0595C23.2544 22.4781 22.7047 22.7951 22.1072 22.99C21.5097 23.1848 20.8776 23.2533 20.2518 23.1909C19.8684 23.7623 19.4148 24.2819 18.9018 24.739H18.8982Z" fill="white"/>
</svg>
