<svg width="28" height="25" viewBox="0 0 28 25" fill="none" xmlns="http://www.w3.org/2000/svg">
<path d="M1.70648 10.2273C1.70673 8.3601 2.32015 6.54468 3.45245 5.06002C4.58476 3.57536 6.17328 2.50362 7.97389 2.00953C9.7745 1.51543 11.6875 1.62632 13.419 2.32515C15.1505 3.02398 16.6045 4.27207 17.5577 5.87761C18.5109 7.48315 18.9105 9.35729 18.695 11.212C18.4795 13.0667 17.6609 14.7993 16.365 16.1435C15.0691 17.4878 13.3677 18.3693 11.5221 18.6525C9.67654 18.9358 7.78903 18.6051 6.14966 17.7114C5.95694 17.606 5.73101 17.5792 5.51897 17.6364L1.82579 18.625L2.8167 14.9295C2.87328 14.7182 2.84643 14.4932 2.7417 14.3011C2.06024 13.0516 1.70423 11.6506 1.70648 10.2273ZM10.2292 1.82083e-07C8.48497 -0.00032891 6.76964 0.445442 5.24625 1.29494C3.72287 2.14444 2.44206 3.36943 1.52558 4.85348C0.609095 6.33753 0.0873914 8.03131 0.0100584 9.77383C-0.0672746 11.5163 0.302333 13.2497 1.08375 14.8091L0.0519309 18.6602C-0.0122846 18.9009 -0.0120847 19.1542 0.0525107 19.3948C0.117106 19.6353 0.243826 19.8547 0.419958 20.0308C0.59609 20.207 0.815441 20.3337 1.05601 20.3983C1.29657 20.4629 1.5499 20.4631 1.79057 20.3989L5.63943 19.3693C7.01885 20.0611 8.53693 20.4318 10.0799 20.4535C11.6229 20.4753 13.1509 20.1476 14.5493 19.495C15.9476 18.8424 17.1802 17.8818 18.1546 16.6852C19.1291 15.4886 19.8201 14.087 20.1759 12.5854C20.5317 11.0838 20.5431 9.52121 20.2092 8.0146C19.8754 6.50798 19.2049 5.09645 18.248 3.88575C17.2912 2.67505 16.0728 1.69658 14.6841 1.02365C13.2954 0.350711 11.7724 0.000755457 10.2292 1.82083e-07ZM17.0474 25C15.6014 25.0017 14.1716 24.696 12.8527 24.1032C11.5338 23.5103 10.356 22.6439 9.39738 21.5614C10.1967 21.6195 11 21.5936 11.794 21.4841C13.2922 22.6603 15.1426 23.2983 17.0474 23.2954C18.4729 23.2976 19.876 22.9404 21.1269 22.2568C21.3196 22.1515 21.5456 22.1246 21.7576 22.1818L25.4508 23.1704L24.4599 19.475C24.4033 19.2637 24.4301 19.0387 24.5349 18.8466C25.2162 17.5969 25.5722 16.196 25.5701 14.7727C25.5708 13.2596 25.1685 11.7736 24.4045 10.4674C23.6406 9.16129 22.5427 8.08214 21.2235 7.34091C21.02 6.565 20.7343 5.81302 20.3712 5.09773C21.7504 5.57192 23.0122 6.33548 24.0722 7.3372C25.1322 8.33892 25.9657 9.55566 26.517 10.9058C27.0683 12.256 27.3246 13.7085 27.2687 15.1658C27.2128 16.6231 26.8459 18.0517 26.1928 19.3557L27.2246 23.2057C27.289 23.4465 27.2888 23.6999 27.2241 23.9406C27.1595 24.1813 27.0327 24.4008 26.8564 24.5769C26.6801 24.7531 26.4606 24.8798 26.2198 24.9443C25.9791 25.0088 25.7256 25.0088 25.4849 24.9443L21.6371 23.9148C20.2132 24.6305 18.6411 25.0022 17.0474 25Z" fill="white"/>
</svg>
