<svg width="27" height="27" viewBox="0 0 27 27" fill="none" xmlns="http://www.w3.org/2000/svg">
<path d="M25.7939 10.7909C25.7939 16.0605 21.4231 20.3758 15.9772 20.3758C10.5313 20.3758 6.16045 16.0605 6.16045 10.7909C6.16045 5.52139 10.5313 1.20605 15.9772 1.20605C21.4231 1.20605 25.7939 5.52139 25.7939 10.7909Z" stroke="white" stroke-width="2.41209"/>
<path d="M9.32678 19.5147L10.1886 18.671L8.46497 16.9836L7.60315 17.8273L9.32678 19.5147ZM1.13813 24.1563C0.662158 24.6223 0.662158 25.3778 1.13813 25.8437C1.6141 26.3097 2.38579 26.3097 2.86176 25.8437L1.13813 24.1563ZM7.60315 17.8273L1.13813 24.1563L2.86176 25.8437L9.32678 19.5147L7.60315 17.8273Z" fill="white"/>
</svg>
